Coordinates
version=1
nRows=22
nColumns=24
inDegrees=yes

Units are S.I. units (second, meters, Newtons, ...)
Angles are in degrees.

endheader
time	pelvis_tilt	pelvis_list	pelvis_rotation	pelvis_tx	pelvis_ty	pelvis_tz	hip_flexion_r	hip_adduction_r	hip_rotation_r	knee_angle_r	ankle_angle_r	subtalar_angle_r	mtp_angle_r	hip_flexion_l	hip_adduction_l	hip_rotation_l	knee_angle_l	ankle_angle_l	subtalar_angle_l	mtp_angle_l	lumbar_extension	lumbar_bending	lumbar_rotation
      0.40000000	      4.84490989	     -1.84566213	     -0.77764024	      0.60102070	      1.04559928	     -0.02160046	     20.01766339	     -2.90608656	     -6.95036751	    -54.91978474	      2.56736365	     -0.00000074	      0.00000000	     -7.59690251	      1.38065468	      0.20149389	     -3.41665854	      3.22688703	      0.00000243	      0.00000000	    -19.54321025	     -0.47020453	     -4.72740323
      0.41666667	      4.82701914	     -1.77429723	     -0.63441998	      0.59829798	      1.04465637	     -0.02292375	     20.47818185	     -3.03004169	     -7.40567714	    -50.00731231	      2.56904129	     -0.00000133	      0.00000000	     -9.08045370	      1.51856890	      0.38888531	     -2.41609715	      3.43886887	      0.00000241	      0.00000000	    -19.84749289	     -0.36139500	     -5.05687397
      0.43333333	      4.73114794	     -1.47906327	     -0.69019000	      0.59601233	      1.04301916	     -0.02304164	     20.79047998	     -3.31998910	     -7.94110295	    -44.62653261	      2.44858986	     -0.00000211	      0.00000000	    -10.52465694	      1.86952413	      0.38035079	     -1.38687995	      3.67248579	      0.00000244	      0.00000000	    -19.86353396	     -0.63902368	     -5.06906907
      0.45000000	      4.85179956	     -1.04494434	     -0.56973423	      0.59385271	      1.04124284	     -0.02326202	     20.58908091	     -3.75617084	     -8.74580368	    -38.77910666	      2.15485297	     -0.00000291	      0.00000000	    -12.11073446	      2.32813712	      0.59319562	     -0.54071184	      4.00432400	      0.00000238	      0.00000000	    -20.08825808	     -0.97781720	     -5.20773217
      0.46666667	      4.70316878	     -0.36546210	     -0.52399263	      0.59132889	      1.03860483	     -0.02329626	     20.54837705	     -4.29618523	     -9.41523713	    -32.63546965	      1.68512973	     -0.00000309	      0.00000000	    -13.27235242	      3.04233577	      0.79051192	      0.06401370	      4.41458830	      0.00000245	      0.00000000	    -20.02690088	     -1.64447487	     -5.38899981
      0.48333333	      4.64177364	     -0.08912910	     -0.08148835	      0.59001879	      1.03611574	     -0.02298273	     19.88700905	     -4.33008311	    -10.40603707	    -25.85674636	      1.07991076	     -0.00000283	      0.00000000	    -14.77671442	      3.16074514	      1.33746834	      1.02061280	      4.71578690	      0.00000243	      0.00000000	    -20.01586468	     -1.79791080	     -5.72423460
      0.50000000	      4.51941689	      0.34990211	     -0.07364836	      0.58903741	      1.03299959	     -0.02159007	     19.29334232	     -4.21900757	    -10.44686474	    -19.14779285	      0.53659968	     -0.00000220	      0.00000000	    -16.21908094	      3.51334981	      1.46245858	      1.88263015	      5.03842338	      0.00000251	      0.00000000	    -19.86233894	     -2.31109314	     -5.53596209
      0.51666667	      4.38897344	      0.92446482	      0.03764109	      0.58776127	      1.02936913	     -0.02082135	     18.74658885	     -4.28266048	     -9.86709247	    -12.83899807	      0.18574195	     -0.00000128	      0.00000000	    -17.52205123	      3.99734118	      1.79365283	      2.49478801	      5.46488361	      0.00000254	      0.00000000	    -19.76422748	     -2.78604241	     -5.73456543
      0.53333333	      4.25473694	      1.51813676	      0.36484301	      0.58678449	      1.02539454	     -0.02033413	     18.19567515	     -4.51490782	     -8.94297737	     -7.21185234	      0.16423285	     -0.00000044	      0.00000000	    -18.72153248	      4.41784231	      2.38297438	      2.85967159	      6.00533778	      0.00000251	      0.00000000	    -19.62061989	     -3.19992254	     -5.90785745
      0.55000000	      4.18790258	      2.12718814	      0.28144143	      0.58634904	      1.02134497	     -0.01944933	     17.71938336	     -4.78061210	     -7.37387316	     -2.56826750	      0.37952506	      0.00000028	      0.00000000	    -20.03813650	      4.96717967	      2.61845099	      3.22890917	      6.48007770	      0.00000264	      0.00000000	    -19.51735639	     -3.63459651	     -5.98520511
      0.56666667	      4.13468450	      2.58916718	      0.26156266	      0.58551003	      1.01740468	     -0.01872251	     17.62023976	     -5.06008292	     -5.88916689	      0.38905465	      0.88065590	      0.00000053	      0.00000000	    -21.15449504	      5.33932718	      2.94133983	      3.20072501	      7.10409938	      0.00000277	      0.00000000	    -19.46234271	     -3.89221585	     -5.85551235
      0.58333333	      3.99457652	      2.94492259	      0.93206324	      0.58395722	      1.01397419	     -0.01856838	     17.75935243	     -5.47653582	     -5.50841782	      1.88184934	      1.20357252	      0.00000090	      0.00000000	    -21.77351373	      5.33258417	      3.89181430	      2.45116499	      7.93398039	      0.00000293	      0.00000000	    -19.57201848	     -3.76295589	     -6.30255169
      0.60000000	      3.99798725	      2.98390232	      0.96100326	      0.58465050	      1.01131033	     -0.01668501	     17.97381096	     -5.33136143	     -4.96465669	      1.81769524	      1.37791912	      0.00000078	      0.00000000	    -22.69278536	      5.14859325	      4.10813101	      1.77390243	      8.55059199	      0.00000314	      0.00000000	    -19.42619075	     -3.57440462	     -6.01197513
      0.61666667	      3.92632570	      2.76050003	      1.21674695	      0.58528559	      1.00911590	     -0.01429274	     18.59156745	     -4.95858405	     -4.99753101	      0.12568057	      1.11834368	      0.00000032	      0.00000000	    -23.23560479	      4.57704760	      4.40419885	      0.57768029	      9.26352401	      0.00000352	      0.00000000	    -19.37549341	     -3.08790474	     -6.10180701
      0.63333333	      3.87348810	      2.76110930	      1.74484598	      0.58627168	      1.00771729	     -0.01191173	     19.29531810	     -4.91394517	     -5.36331226	     -2.57075872	      0.46120586	     -0.00000024	      0.00000000	    -23.57868522	      4.10860500	      5.07363613	     -1.02223541	      9.79679914	      0.00000387	      0.00000000	    -19.32355668	     -2.76826205	     -6.38122071
      0.65000000	      3.75209008	      2.65055090	      2.20708239	      0.58779930	      1.00664011	     -0.00892367	     20.08886663	     -4.74821712	     -5.80623124	     -5.74087641	     -0.54791207	     -0.00000086	      0.00000000	    -23.75305707	      3.54338161	      5.68795318	     -2.80483271	     10.14220389	      0.00000433	      0.00000000	    -19.12434681	     -2.39575878	     -6.71227973
      0.66666667	      3.60960591	      2.64204743	      2.57096531	      0.58979847	      1.00627520	     -0.00642048	     20.78982515	     -4.73856825	     -6.08590714	     -8.91888438	     -1.64413280	     -0.00000122	      0.00000000	    -23.65757335	      3.20896950	      6.26973737	     -5.08599791	     10.22270765	      0.00000483	      0.00000000	    -18.84077827	     -1.95618063	     -6.85632124
      0.68333333	      3.67344384	      2.67021843	      2.66194893	      0.59153152	      1.00668474	     -0.00361986	     21.43922179	     -4.71756884	     -6.00946318	    -12.51890891	     -2.21841891	     -0.00000145	      0.00000000	    -23.38870900	      3.06647039	      6.58851332	     -8.07619508	     10.04626899	      0.00000555	      0.00000000	    -18.73240359	     -1.57545237	     -6.71712302
      0.70000000	      3.93937912	      2.48367029	      2.93712290	      0.59495161	      1.00820126	     -0.00125509	     21.51417935	     -4.55701449	     -6.07024831	    -15.83438514	     -2.22501009	     -0.00000173	      0.00000000	    -22.98697040	      2.68167953	      6.87459533	    -11.80142788	      9.45859255	      0.00000648	      0.00000000	    -18.85743828	     -0.96882196	     -6.78758306
      0.71666667	      4.20434740	      2.30602155	      3.14083071	      0.59802898	      1.01020225	      0.00112015	     21.09950391	     -4.36878820	     -6.10379903	    -18.21565247	     -2.09136661	     -0.00000189	      0.00000000	    -21.92633790	      2.40043136	      6.83016807	    -16.62809096	      8.45587854	      0.00000778	      0.00000000	    -18.85234548	     -0.24013007	     -6.88151648
      0.73333333	      4.26057797	      2.26528318	      3.30341061	      0.60019786	      1.01187615	      0.00412306	     20.82844623	     -4.28189254	     -6.14877200	    -20.39453624	     -1.62134622	     -0.00000166	      0.00000000	    -19.60228152	      2.30774668	      6.32288603	    -23.18113828	      7.03007089	      0.00000944	      0.00000000	    -18.70812627	      0.08978364	     -6.73923782
      0.75000000	      4.28923392	      2.02136829	      3.40341575	      0.60271781	      1.01380962	      0.00717946	     20.11845732	     -3.93664450	     -6.36138120	    -21.74583439	     -0.94273911	     -0.00000119	      0.00000000	    -16.83156818	      1.90679946	      5.15467046	    -30.06276917	      4.51648006	      0.00001109	      0.00000000	    -18.50281605	      0.62823972	     -6.94889769
